<?xml version="1.0" encoding="UTF-8" standalone="no" ?>
<!DOCTYPE svg PUBLIC "-//W3C//DTD SVG 1.1//EN" "http://www.w3.org/Graphics/SVG/1.1/DTD/svg11.dtd">
<svg xmlns="http://www.w3.org/2000/svg" xmlns:xlink="http://www.w3.org/1999/xlink" version="1.1" width="1024" height="768" viewBox="0 0 1024 768" xml:space="preserve">
<desc>Created with Fabric.js 5.3.0</desc>
<defs>
</defs>
<g transform="matrix(1 0 0 8.71 103.8961038961 405.6103896104)" id="6xECCvoljz13FAtb9NM8h"  >
<path style="stroke: rgb(204,14,140); stroke-width: 0; stroke-dasharray: none; stroke-linecap: butt; stroke-dashoffset: 0; stroke-linejoin: miter; stroke-miterlimit: 4; fill: rgb(176,176,176); fill-rule: nonzero; opacity: 1;" vector-effect="non-scaling-stroke"  transform=" translate(0, 0)" d="M -41.55844 -41.55844 L 41.55844 -41.55844 L 41.55844 41.55844 L -41.55844 41.55844 z" stroke-linecap="round" />
</g>
<g transform="matrix(0 1 -1.3833142254 0 970.1117312472 646.0259957915)" id="somq0UTr5MSrfj-Cp4wIG"  >
<path style="stroke: rgb(204,14,140); stroke-width: 0; stroke-dasharray: none; stroke-linecap: butt; stroke-dashoffset: 0; stroke-linejoin: miter; stroke-miterlimit: 4; fill: rgb(176,176,176); fill-rule: nonzero; opacity: 1;" vector-effect="non-scaling-stroke"  transform=" translate(0, 0)" d="M -41.55844 -41.55844 L 41.55844 -41.55844 L 41.55844 41.55844 L -41.55844 41.55844 z" stroke-linecap="round" />
</g>
<g transform="matrix(0 1 -9.23 0 529.0389466545 646.0259942331)" id="ehT4SCbuWQc3eb_SfNa2w"  >
<path style="stroke: rgb(204,14,140); stroke-width: 0; stroke-dasharray: none; stroke-linecap: butt; stroke-dashoffset: 0; stroke-linejoin: miter; stroke-miterlimit: 4; fill: rgb(176,176,176); fill-rule: nonzero; opacity: 1;" vector-effect="non-scaling-stroke"  transform=" translate(0, 0)" d="M -41.55844 -41.55844 L 41.55844 -41.55844 L 41.55844 41.55844 L -41.55844 41.55844 z" stroke-linecap="round" />
</g>
<g transform="matrix(0 1 -0.4634183921 0 1008.3411684759 725.9653695238)" id="ISrFYTM9bD-sHND0hK8Qo"  >
<path style="stroke: rgb(204,14,140); stroke-width: 0; stroke-dasharray: none; stroke-linecap: butt; stroke-dashoffset: 0; stroke-linejoin: miter; stroke-miterlimit: 4; fill: rgb(176,176,176); fill-rule: nonzero; opacity: 1;" vector-effect="non-scaling-stroke"  transform=" translate(0, 0)" d="M -41.55844 -41.55844 L 41.55844 -41.55844 L 41.55844 41.55844 L -41.55844 41.55844 z" stroke-linecap="round" />
</g>
<g transform="matrix(11.4374991377 0 0 5.4642861991 103.8961038961 43.6363636364)" id="gvhOWwEdK1t3LrO7IVvEI"  >
<path style="stroke: rgb(44,182,36); stroke-width: 0; stroke-dasharray: none; stroke-linecap: butt; stroke-dashoffset: 0; stroke-linejoin: miter; stroke-miterlimit: 4; fill: rgb(123,123,123); fill-rule: nonzero; opacity: 1;" vector-effect="non-scaling-stroke"  transform=" translate(0, 0)" d="M -5.81818 -3.34974 C -5.81818 -4.71302 -5.29019 -5.8181899999999995 -4.63888 -5.8181899999999995 L 4.63888 -5.8181899999999995 L 4.63888 -5.8181899999999995 C 5.29019 -5.8181899999999995 5.81818 -4.71303 5.81818 -3.3497399999999997 L 5.81818 3.34973 L 5.81818 3.34973 C 5.81818 4.713010000000001 5.29019 5.81818 4.63888 5.81818 L -4.63888 5.81818 L -4.63888 5.81818 C -5.29019 5.81818 -5.81818 4.71302 -5.81818 3.34973 z" stroke-linecap="round" />
</g>
<g transform="matrix(11.4374991377 0 0 5.4642861991 103.8961311899 420.987012987)" id="K8b7T7uTl19P1LCQJP5s0"  >
<path style="stroke: rgb(44,182,36); stroke-width: 0; stroke-dasharray: none; stroke-linecap: butt; stroke-dashoffset: 0; stroke-linejoin: miter; stroke-miterlimit: 4; fill: rgb(123,123,123); fill-rule: nonzero; opacity: 1;" vector-effect="non-scaling-stroke"  transform=" translate(0, 0.000005)" d="M -5.81818 -3.34974 C -5.81818 -4.71302 -5.29019 -5.8181899999999995 -4.63888 -5.8181899999999995 L 4.63888 -5.8181899999999995 L 4.63888 -5.8181899999999995 C 5.29019 -5.8181899999999995 5.81818 -4.71303 5.81818 -3.3497399999999997 L 5.81818 3.34973 L 5.81818 3.34973 C 5.81818 4.713010000000001 5.29019 5.81818 4.63888 5.81818 L -4.63888 5.81818 L -4.63888 5.81818 C -5.29019 5.81818 -5.81818 4.71302 -5.81818 3.34973 z" stroke-linecap="round" />
</g>
<g transform="matrix(11.4374991377 0 0 1.6668317619 103.8960766023 762.9706426203)" id="rrplGwxByrXM8ZIBuPyyT"  >
<path style="stroke: rgb(44,182,36); stroke-width: 0; stroke-dasharray: none; stroke-linecap: butt; stroke-dashoffset: 0; stroke-linejoin: miter; stroke-miterlimit: 4; fill: rgb(123,123,123); fill-rule: nonzero; opacity: 1;" vector-effect="non-scaling-stroke"  transform=" translate(0, 0)" d="M -5.81818 2.27399 C -5.81818 -2.1951899999999998 -5.29019 -5.81818 -4.63888 -5.81818 L 4.63888 -5.81818 L 4.63888 -5.81818 C 5.29019 -5.81818 5.81818 -2.1951899999999998 5.81818 2.2739899999999995 L 5.81818 2.2739899999999995 L 5.81818 2.2739899999999995 C 5.81818 4.231389999999999 5.58693 5.81818 5.30167 5.81818 L -5.301680000000001 5.81818 L -5.301680000000001 5.81818 C -5.586940000000001 5.81818 -5.818190000000001 4.23139 -5.818190000000001 2.27399 z" stroke-linecap="round" />
</g>
<g transform="matrix(0 11.4374991377 -5.4642861991 0 170.4415599229 646.0259942331)" id="CrhL-BqqRWm8P6BaEMRjW"  >
<path style="stroke: rgb(44,182,36); stroke-width: 0; stroke-dasharray: none; stroke-linecap: butt; stroke-dashoffset: 0; stroke-linejoin: miter; stroke-miterlimit: 4; fill: rgb(123,123,123); fill-rule: nonzero; opacity: 1;" vector-effect="non-scaling-stroke"  transform=" translate(0, 0.000005)" d="M -5.81818 -3.34974 C -5.81818 -4.71302 -5.29019 -5.8181899999999995 -4.63888 -5.8181899999999995 L 4.63888 -5.8181899999999995 L 4.63888 -5.8181899999999995 C 5.29019 -5.8181899999999995 5.81818 -4.71303 5.81818 -3.3497399999999997 L 5.81818 3.34973 L 5.81818 3.34973 C 5.81818 4.713010000000001 5.29019 5.81818 4.63888 5.81818 L -4.63888 5.81818 L -4.63888 5.81818 C -5.29019 5.81818 -5.81818 4.71302 -5.81818 3.34973 z" stroke-linecap="round" />
</g>
<g transform="matrix(0 11.4374991377 -5.4642861991 0 912.6233478545 646.0259942331)" id="14t_-6N3QYyyUkyy6WfYk"  >
<path style="stroke: rgb(44,182,36); stroke-width: 0; stroke-dasharray: none; stroke-linecap: butt; stroke-dashoffset: 0; stroke-linejoin: miter; stroke-miterlimit: 4; fill: rgb(123,123,123); fill-rule: nonzero; opacity: 1;" vector-effect="non-scaling-stroke"  transform=" translate(0, 0.000005)" d="M -5.81818 -3.34974 C -5.81818 -4.71302 -5.29019 -5.8181899999999995 -4.63888 -5.8181899999999995 L 4.63888 -5.8181899999999995 L 4.63888 -5.8181899999999995 C 5.29019 -5.8181899999999995 5.81818 -4.71303 5.81818 -3.3497399999999997 L 5.81818 3.34973 L 5.81818 3.34973 C 5.81818 4.713010000000001 5.29019 5.81818 4.63888 5.81818 L -4.63888 5.81818 L -4.63888 5.81818 C -5.29019 5.81818 -5.81818 4.71302 -5.81818 3.34973 z" stroke-linecap="round" />
</g>
<g transform="matrix(1.4961038961 0 0 1.4559996423 551.5047692421 634.0958284627)" id="2lobzEzCyii5AyovKDBHd"  >
<path style="stroke: none; stroke-width: 1; stroke-dasharray: none; stroke-linecap: butt; stroke-dashoffset: 0; stroke-linejoin: miter; stroke-miterlimit: 4; fill: rgb(0,0,0); fill-rule: nonzero; opacity: 1;" vector-effect="non-scaling-stroke"  transform=" translate(0, 0)" d="M -12.55039 -19.85089 C -12.58619 -19.85763 -12.61107 -19.89131 -12.60778 -19.92855 C -12.60449 -19.965790000000002 -12.5741 -19.994310000000002 -12.5377 -19.994310000000002 L 15.307 -19.994310000000002 L 25.8806 -19.994310000000002 L 10.922590000000001 -19.994310000000002 L 21.648000000000003 -19.994310000000002 L 40 -3.425310000000003 L 15.306999999999999 -4.687310000000004 L 16.569 20.005689999999998 L 0 1.6536899999999974 L -16.569 20.005689999999998 L -15.306999999999999 -4.687310000000004 L -40 -3.4253100000000036 C -40 -3.4253100000000036 -24.00818 -20.508420000000005 -21.648 -19.994310000000002 C -19.28782 -19.480200000000004 -22.917749999999998 -19.994310000000002 -21.648 -19.994310000000002 C -20.37825 -19.994310000000002 -22.70997 -19.994310000000002 -16.569 -19.994310000000002 C -10.42803 -19.994310000000002 18.83026 -20.05936 22.657010000000003 -16.23261 C 26.402100000000004 -12.487520000000002 -1.0653899999999972 -17.687350000000002 -12.550389999999997 -19.85089 z" stroke-linecap="round" />
</g>
</svg>